<?xml version="1.0" encoding="UTF-8"?>
<svg version="1.1" xmlns="http://www.w3.org/2000/svg" width="1024" height="1024">
<path d="M0 0 C337.92 0 675.84 0 1024 0 C1024 337.92 1024 675.84 1024 1024 C686.08 1024 348.16 1024 0 1024 C0 686.08 0 348.16 0 0 Z " fill="#D1E1CF" transform="translate(0,0)"/>
<path d="M0 0 C337.92 0 675.84 0 1024 0 C1024 337.92 1024 675.84 1024 1024 C686.08 1024 348.16 1024 0 1024 C0 686.08 0 348.16 0 0 Z M472.16290283 113.98680115 C469.69837819 115.14129293 468.10177018 115.23656752 465.39355469 115.21118164 C464.48450378 115.20780289 463.57545288 115.20442413 462.63885498 115.20094299 C461.65975159 115.18748337 460.68064819 115.17402374 459.671875 115.16015625 C458.13916962 115.1523539 458.13916962 115.1523539 456.57550049 115.14439392 C453.30018912 115.12658891 450.02519078 115.09550244 446.75 115.0625 C443.51768376 115.03461848 440.28542352 115.00983429 437.05303955 114.99131775 C435.04481787 114.9793489 433.03661675 114.96205388 431.02850342 114.93800354 C425.54171725 114.90015941 420.12465972 115.09942332 414.65063477 115.48413086 C405.35145136 116.12858718 396.05840082 116.19732044 386.73985863 116.26036072 C383.58704903 116.28180027 380.43432591 116.30878064 377.28157043 116.33703613 C370.58358202 116.39611782 363.88555073 116.4485405 357.1875 116.5 C349.42278814 116.55975762 341.6581195 116.62241388 333.89348793 116.69187927 C330.82363497 116.71795853 327.75377604 116.73906443 324.68388367 116.7598877 C315.60683533 116.83260825 306.5484271 116.99572301 297.48217773 117.46289062 C296.71727366 117.50210381 295.95236959 117.54131699 295.16428661 117.58171844 C288.96358753 117.93470114 282.94998431 118.72969522 276.875 120 C275.31495239 120.32266846 275.31495239 120.32266846 273.72338867 120.65185547 C222.18022537 131.99406114 175.9379942 165.11218945 147.51953125 209.34765625 C146.36172103 211.18667391 145.20928891 213.02908948 144.0625 214.875 C143.53108398 215.73005127 142.99966797 216.58510254 142.45214844 217.46606445 C133.95013328 231.39423906 128.26199169 245.95136037 123.875 261.625 C123.64562744 262.42711914 123.41625488 263.22923828 123.17993164 264.05566406 C122.37841172 267.02273887 121.68833093 270.00436358 121 273 C120.84071864 273.66543194 120.68143728 274.33086388 120.51732922 275.01646042 C116.4621839 292.42497326 116.32406022 309.78261319 116.22349763 327.54606867 C116.19540017 331.74667336 116.14485751 335.94701458 116.09684753 340.14743042 C116.00902925 348.10772604 115.93965016 356.06806204 115.87770051 364.02859676 C115.78687226 375.59656992 115.66816138 387.16426236 115.54944134 398.73197746 C115.53162317 400.47218694 115.51381515 402.21239652 115.49601746 403.9526062 C115.48287798 405.23258431 115.48287798 405.23258431 115.46947306 406.53842056 C115.41940122 411.47558859 115.3745384 416.41276569 115.33470327 421.35002661 C115.19695237 438.32718471 114.92169066 455.28957411 114.41483104 472.25996399 C114.05388308 484.36537585 113.85035565 496.45921364 113.8671875 508.5703125 C113.86650713 510.41039035 113.86553122 512.2504681 113.86428833 514.09054565 C113.86284623 517.87563973 113.8648497 521.66070961 113.86962891 525.44580078 C113.87533402 530.18247537 113.87192901 534.9190938 113.86618233 539.65576649 C113.84785851 557.54652926 113.92949326 575.41184498 114.55393982 593.29275703 C115.03434162 607.28875908 115.13355047 621.28181063 115.2109375 635.28515625 C115.22526035 637.64170397 115.23969567 639.99825101 115.25424194 642.35479736 C115.31249098 652.04045639 115.36806779 661.72608415 115.40136719 671.41186523 C115.42257001 677.42940462 115.45802599 683.44672672 115.50212479 689.46413994 C115.51603095 691.71260436 115.52494783 693.96110679 115.52817917 696.20961189 C115.56187059 717.3596712 116.77163468 738.66542378 123 759 C123.2587793 759.86882813 123.51755859 760.73765625 123.78417969 761.6328125 C130.58445827 784.19283276 139.94620008 805.01684878 154 824 C154.49161621 824.66515625 154.98323242 825.3303125 155.48974609 826.015625 C187.70836035 868.90342335 235.12064616 897.28514311 288 906 C294.2382821 906.85177378 300.35919395 907.14024302 306.65063477 907.11352539 C307.56878464 907.11367142 308.48693451 907.11381744 309.4329071 907.1139679 C312.43576508 907.11327711 315.43855925 907.10552419 318.44140625 907.09765625 C320.536046 907.0957891 322.63068619 907.0943666 324.72532654 907.09336853 C330.21450017 907.08956673 335.70364696 907.0797566 341.19281006 907.06866455 C346.80366656 907.05839998 352.41452743 907.05386013 358.02539062 907.04882812 C369.01693882 907.03813207 380.00846717 907.02108396 391 907 C391 907.66 391 908.32 391 909 C391.69855606 909.01030746 392.39711212 909.02061493 393.11683655 909.03123474 C399.72228051 909.129493 406.32764249 909.23204577 412.93294621 909.33933926 C416.32823211 909.39434144 419.7235269 909.44772308 423.11889648 909.49731445 C427.02856691 909.55449028 430.9381032 909.61887078 434.84765625 909.68359375 C436.05833267 909.70030624 437.26900909 909.71701874 438.51637268 909.73423767 C447.93907406 909.8990009 447.93907406 909.8990009 452.19702148 910.58227539 C454.94614922 911.26616207 454.94614922 911.26616207 457 910 C462.35874065 909.68368545 467.67711135 909.90566919 473 910.5625 C477.63346501 911.10282419 481.93830439 910.74843909 486.5546875 910.15625 C489 910 489 910 490.7331543 910.48193359 C493.7596659 911.17361454 496.61070921 911.12988269 499.71484375 911.1328125 C500.69222252 911.13424759 500.69222252 911.13424759 501.68934631 911.13571167 C503.07032365 911.13639109 504.45130422 911.13455342 505.83227539 911.13037109 C507.89932884 911.12509739 509.96615712 911.13028321 512.03320312 911.13671875 C519.34151892 911.14001256 526.56026762 910.84946389 533.8449707 910.21826172 C539.2705582 909.84292509 544.68977934 909.93451541 550.125 910 C552.3150552 910.02546576 554.50516759 910.04651354 556.6953125 910.0625 C557.64422363 910.07410156 558.59313477 910.08570313 559.57080078 910.09765625 C562.14222054 910.10696276 562.14222054 910.10696276 565 909 C565.33 909.66 565.66 910.32 566 911 C566.8971875 910.835 567.794375 910.67 568.71875 910.5 C575.36926115 909.54992698 582.14118499 909.96071561 588.83984375 910.0390625 C589.91363281 910.04679688 590.98742187 910.05453125 592.09375 910.0625 C593.05990234 910.07410156 594.02605469 910.08570313 595.02148438 910.09765625 C598.00813343 910.06514626 598.00813343 910.06514626 600.949646 909.50949097 C606.20404028 908.73972496 611.48342774 908.80079406 616.78417969 908.75048828 C617.95437149 908.73565399 619.12456329 908.7208197 620.33021545 908.70553589 C622.86627737 908.67369644 625.40236401 908.64378098 627.93846893 908.61557388 C631.96853185 908.56978236 635.99844282 908.51707037 640.02838135 908.4616394 C651.48542423 908.30513512 662.94252297 908.15564165 674.39990234 908.02587891 C680.73541261 907.95404978 687.0707146 907.87217048 693.40595746 907.77966106 C696.74597364 907.73132348 700.08575761 907.68946961 703.42598724 907.65701675 C727.01143964 907.42502847 748.69778464 905.05553205 771 897 C772.16789063 896.59136719 773.33578125 896.18273437 774.5390625 895.76171875 C799.48586554 886.8662709 822.43247592 873.08288256 841.83203125 855.015625 C843.90222547 853.09090389 846.02953109 851.26252513 848.1875 849.4375 C852.19770762 845.92061157 855.59705613 842.10000872 859 838 C859.69053467 837.19393311 859.69053467 837.19393311 860.39501953 836.37158203 C869.09923914 826.21070427 876.46761725 815.67735678 883 804 C883.36963867 803.34064453 883.73927734 802.68128906 884.12011719 802.00195312 C894.79891423 782.6128009 900.71921783 761.61425685 905 740 C905.16763351 739.25888474 905.33526703 738.51776947 905.50798035 737.75419617 C907.25720865 729.39701147 907.33207014 721.10367547 907.37890625 712.60546875 C907.39488625 710.99572888 907.41175469 709.38599763 907.42944336 707.77627563 C907.46536934 704.35556498 907.49565431 700.93487188 907.52127075 697.5140686 C907.56156692 692.14493747 907.61427165 686.77597645 907.66967773 681.40698242 C907.68832211 679.59114088 907.70695306 677.77529921 907.72557068 675.9594574 C907.73945233 674.60767804 907.73945233 674.60767804 907.75361443 673.22859001 C907.78131388 670.48586218 907.80775899 667.74312478 907.83387756 665.00038147 C908.01063051 646.63654604 908.31151995 628.27549448 908.63015747 609.91366577 C908.67301555 607.43515682 908.7154995 604.95664137 908.75756836 602.4781189 C908.79496924 600.27963407 908.83335009 598.08116552 908.87304688 595.88272095 C908.98064908 589.58792774 908.98995187 583.30255976 908.90879822 577.00712585 C909.00241484 573.92037734 909.45764913 571.03627537 910 568 C910 567.13375 910 566.2675 910 565.375 C910 563 910 563 910.625 560.8125 C910.810625 559.9153125 910.810625 559.9153125 911 559 C910.34 558.34 909.68 557.68 909 557 C908.76953125 555.08203125 908.76953125 555.08203125 908.8125 552.8125 C908.81894531 552.07644531 908.82539062 551.34039063 908.83203125 550.58203125 C909.04206416 547.35338584 909.51938696 544.19960568 910 541 C910.38993972 538.23106105 910.76015034 535.45984354 911.125 532.6875 C911.27388672 531.61532227 911.27388672 531.61532227 911.42578125 530.52148438 C912.06040526 526.6538566 912.06040526 526.6538566 911 523 C910.97934454 520.2233166 911.00566263 517.4626343 911.0625 514.6875 C911.15020757 507.86262695 910.60184937 501.51969443 909.375 494.7890625 C908.86287534 490.98013536 909.34792359 487.7675526 910 484 C909.67 483.67 909.34 483.34 909 483 C908.91514109 480.90160501 908.90110535 478.80032679 908.91401672 476.70025635 C908.91636129 476.04336492 908.91870586 475.38647349 908.92112148 474.70967627 C908.926568 473.27558045 908.93418174 471.84149165 908.94366109 470.40741682 C908.96867898 466.5089923 908.97593792 462.61052492 908.98501587 458.71203613 C908.98726274 457.90356633 908.98950961 457.09509653 908.99182457 456.26212764 C909.01068596 448.11123536 908.94879409 439.96191465 908.86401367 431.81152344 C908.85671411 431.09414458 908.84941455 430.37676572 908.84189379 429.63764811 C908.7878796 424.37817727 908.72883417 419.11877056 908.66796875 413.859375 C908.65435535 412.6794452 908.65435535 412.6794452 908.64046693 411.47567844 C908.55398911 404.00569961 908.46568518 396.53574407 908.37313366 389.06583786 C908.25688514 379.67248858 908.14984167 370.27913077 908.05486506 360.88554168 C907.98629979 354.1812548 907.90708873 347.47714161 907.82033139 340.77306581 C907.7693103 336.80908941 907.72257762 332.84518784 907.68758202 328.88103485 C907.34403173 290.89774855 902.1845724 255.81708012 884 222 C883.68981934 221.40912598 883.37963867 220.81825195 883.06005859 220.20947266 C875.91036655 206.63980331 866.71763491 194.55523145 856.23828125 183.390625 C854.21295094 181.22744498 852.28765579 179.01237389 850.375 176.75 C846.88391272 172.76018597 843.08521546 169.37078986 839 166 C838.50032715 165.57734863 838.0006543 165.15469727 837.48583984 164.71923828 C817.73073737 148.04089288 795.45630282 135.44387036 771 127 C769.76636719 126.56816406 768.53273438 126.13632813 767.26171875 125.69140625 C736.7496384 116.05425737 706.10511826 116.2432413 674.43457031 116.25140381 C665.04601725 116.24770119 655.65750147 116.19555061 646.26905251 116.15435791 C642.90249064 116.14076751 639.53593335 116.13091657 636.1693573 116.12158203 C623.43741265 116.07885902 610.73366017 115.9088915 598.01449585 115.29888916 C591.19119928 114.97612557 584.6338886 115.22355558 577.82421875 115.8125 C572.28632735 116.08402072 566.81582595 115.72644441 561.29077148 115.31835938 C557.58329767 115.05777267 554.57289901 115.09227627 551 116 C548.31280008 115.93841834 545.67688702 115.81897732 543 115.625 C542.2884375 115.58117187 541.576875 115.53734375 540.84375 115.4921875 C535.46978221 115.13124936 535.46978221 115.13124936 532.97265625 114.43359375 C529.80018344 113.73627794 526.64885679 114.18792759 523.4375 114.4375 C515.16531663 114.98944615 506.91449002 115.11669778 498.625 115.125 C496.85080688 115.13164673 496.85080688 115.13164673 495.04077148 115.13842773 C493.36930054 115.13564819 493.36930054 115.13564819 491.6640625 115.1328125 C490.66842285 115.13168457 489.6727832 115.13055664 488.64697266 115.12939453 C486.27266259 115.01332883 484.26926688 114.67788542 482 114 C482 114.66 482 115.32 482 116 C480.02 115.67 478.04 115.34 476 115 C476 114.34 476 113.68 476 113 C473.94609164 112.84226483 473.94609164 112.84226483 472.16290283 113.98680115 Z M113 543 C114 545 114 545 114 545 Z " fill="#A9C4AA" transform="translate(0,0)"/>
<path d="M0 0 C0.66 0 1.32 0 2 0 C2.22139648 0.86052979 2.44279297 1.72105957 2.67089844 2.60766602 C3.51282835 5.8787959 4.35535092 9.14977205 5.19824219 12.4206543 C5.5591474 13.82163722 5.91983343 15.22267662 6.28027344 16.6237793 C8.10354235 23.71059129 9.93832499 30.79306318 11.83984375 37.859375 C14.62053545 48.25921678 17.27461634 58.69139726 19.91088867 69.12866211 C20.51719197 71.52186093 21.12728313 73.91410299 21.7409668 76.30541992 C22.63444824 79.78864774 23.5157804 83.27474969 24.39453125 86.76171875 C24.67150345 87.83145432 24.94847565 88.90118988 25.23384094 90.00334167 C25.48127548 90.99570328 25.72871002 91.98806488 25.98364258 93.01049805 C26.20474197 93.88014694 26.42584137 94.74979584 26.65364075 95.64579773 C27.01571062 98.10678501 26.78115594 99.65987415 26 102 C25.33613281 101.79503906 24.67226563 101.59007812 23.98828125 101.37890625 C23.10527344 101.10949219 22.22226562 100.84007812 21.3125 100.5625 C20.44238281 100.29566406 19.57226562 100.02882813 18.67578125 99.75390625 C16.12974079 99.03655471 13.5996577 98.482459 11 98 C11 97.34 11 96.68 11 96 C7.01977172 95.15570915 3.02854781 94.564661 -1 94 C-1.3403125 95.11375 -1.680625 96.2275 -2.03125 97.375 C-4.92843968 106.59731301 -8.306348 115.15896232 -12.79296875 123.71484375 C-14.92149971 127.77963256 -16.84572101 131.9268621 -18.77124023 136.09082031 C-22.16222139 143.40236297 -25.4764831 150.34294199 -30.37890625 156.78515625 C-32.18943465 159.25881795 -33.6377124 161.81997321 -35.125 164.5 C-42.37866624 177.16124175 -51.49507986 188.95277207 -61 200 C-61.62132812 200.7321875 -62.24265625 201.464375 -62.8828125 202.21875 C-74.60857541 215.64589811 -87.27429353 228.87935988 -102 239 C-102.6305127 239.4424707 -103.26102539 239.88494141 -103.91064453 240.34082031 C-127.49515823 256.79724223 -152.00433725 265.47539149 -180.875 261 C-190.24298053 259.04279514 -199.04105597 255.42630971 -207.87207031 251.80029297 C-221.16316884 246.80164439 -240.16178538 248.51114553 -252.99414062 254.07958984 C-265.54548328 259.83890847 -277.11287756 266.50229052 -288 275 C-288.62438965 275.48307617 -289.2487793 275.96615234 -289.89208984 276.46386719 C-304.92836301 288.16830266 -319.50995969 301.1251869 -331.94140625 315.60546875 C-333.49581332 317.41353618 -335.06954755 319.20501308 -336.65234375 320.98828125 C-344.76785483 330.19545553 -351.95643782 339.95589404 -359 350 C-360.34625604 345.96123187 -359.19406865 343.0170923 -358.0625 339.0625 C-357.83578613 338.26690674 -357.60907227 337.47131348 -357.37548828 336.65161133 C-349.12361208 308.69176773 -335.06704303 283.02157583 -316 261 C-314.94232422 259.77603516 -314.94232422 259.77603516 -313.86328125 258.52734375 C-304.15163478 247.52546059 -294.0429274 237.42904253 -282 229 C-281.4023584 228.57976562 -280.8047168 228.15953125 -280.18896484 227.7265625 C-258.42675738 212.68277415 -233.66077436 204.74999019 -207.25 209.0625 C-201.74951214 210.1057315 -196.61786536 211.80167703 -191.36450195 213.7175293 C-176.58884324 219.07126318 -163.07497768 220.72658399 -148.19140625 214.53515625 C-127.57705065 204.61907088 -110.82913135 189.06007189 -97 171 C-96.58041016 170.45682129 -96.16082031 169.91364258 -95.72851562 169.35400391 C-83.26783439 153.14147522 -73.50158578 135.64248358 -64.25390625 117.44335938 C-63.24862139 115.48446317 -62.20808202 113.54367627 -61.15625 111.609375 C-55.58108189 101.23007267 -51.74741641 89.45273168 -49 78 C-50.60875 78.0309375 -50.60875 78.0309375 -52.25 78.0625 C-55.14790424 78.0142016 -57.28612141 77.86844115 -60 77 C-60 76.34 -60 75.68 -60 75 C-61.06927734 74.92652344 -61.06927734 74.92652344 -62.16015625 74.8515625 C-67.70508491 74.41871477 -72.72086449 73.75971184 -78 72 C-76.62803835 68.8376284 -75.1434878 67.0063782 -72.5 64.8125 C-69.32994443 62.1288248 -66.20665391 59.41015409 -63.125 56.625 C-62.28195312 55.86574219 -61.43890625 55.10648437 -60.5703125 54.32421875 C-58.87340809 52.78978391 -57.18060369 51.2508012 -55.4921875 49.70703125 C-50.52741538 45.18582028 -45.43863291 40.92104907 -40.16796875 36.76171875 C-37.59173531 34.66823897 -35.31760244 32.37554251 -33 30 C-27.75034653 25.17178468 -22.40669406 20.44743212 -17.01953125 15.7734375 C-15.52433695 14.4604429 -14.04488349 13.12947513 -12.57421875 11.7890625 C-11.36185547 10.68691406 -11.36185547 10.68691406 -10.125 9.5625 C-9.01511719 8.54349609 -9.01511719 8.54349609 -7.8828125 7.50390625 C-6 6 -6 6 -4 6 C-3.71125 5.38125 -3.4225 4.7625 -3.125 4.125 C-2 2 -2 2 0 0 Z " fill="#4A8D55" transform="translate(676,264)"/>
<path d="M0 0 C0.33 0 0.66 0 1 0 C1 74.58 1 149.16 1 226 C-19.46 226 -39.92 226 -61 226 C-61.48363641 193.17093957 -61.48363641 193.17093957 -61.5859375 179.35742188 C-61.65699831 169.83896832 -61.74028591 160.32179435 -61.90527344 150.80444336 C-62.02540756 143.87112971 -62.10241988 136.93885907 -62.12906194 130.00453347 C-62.14462239 126.33689032 -62.18080427 122.67222908 -62.26876068 119.00554848 C-62.85223478 93.72382684 -62.85223478 93.72382684 -56.78261185 86.48829937 C-54.34246944 84.06743143 -51.75780501 82.05401558 -49 80 C-47.12337105 77.95185702 -47.12337105 77.95185702 -45.765625 76.07421875 C-45.34522949 75.51814941 -44.92483398 74.96208008 -44.49169922 74.38916016 C-44.08193848 73.8276123 -43.67217773 73.26606445 -43.25 72.6875 C-42.77449707 72.04345215 -42.29899414 71.3994043 -41.80908203 70.73583984 C-30.90287363 55.77231385 -20.79369383 40.35223724 -12.08935547 24.0078125 C-10.65590956 21.36580014 -9.14061303 18.77576844 -7.62109375 16.18261719 C-4.5266077 10.89858242 -1.86748346 5.83588582 0 0 Z " fill="#4E965A" transform="translate(681,396)"/>
<path d="M0 0 C0 34.32 0 68.64 0 104 C-20.46 104 -40.92 104 -62 104 C-62 78.59 -62 53.18 -62 27 C-56.72 25.68 -51.44 24.36 -46 23 C-30.75862548 18.34963352 -16.47083061 10.76448001 -3.75 1.1796875 C-2 0 -2 0 0 0 Z " fill="#35764A" transform="translate(589,518)"/>
<path d="M0 0 C2.36450685 0.94906877 4.72341011 1.91076351 7.08056641 2.87792969 C13.92830727 5.55350728 21.11677943 7.31085589 28.3125 8.75 C28.3125 34.16 28.3125 59.57 28.3125 85.75 C7.8525 85.75 -12.6075 85.75 -33.6875 85.75 C-33.6875 57.37 -33.6875 28.99 -33.6875 -0.25 C-21.94707117 -5.28161235 -11.75323167 -4.57320498 0 0 Z " fill="#1D563A" transform="translate(467.6875,536.25)"/>
<path d="M0 0 C4.29 0 8.58 0 13 0 C13.92941406 1.66546875 14.85882813 3.3309375 15.81640625 5.046875 C17.0650458 7.28128262 18.31374702 9.51565577 19.5625 11.75 C20.17158203 12.84183594 20.78066406 13.93367187 21.40820312 15.05859375 C23.26383706 18.37713486 25.1307241 21.68912688 27 25 C27.32280945 25.5787085 27.6456189 26.15741699 27.97821045 26.75366211 C28.92489855 28.4491841 29.88219476 30.13876962 30.83984375 31.828125 C31.39921631 32.82231445 31.95858887 33.81650391 32.53491211 34.84082031 C33.01839111 35.55334961 33.50187012 36.26587891 34 37 C34.66 37 35.32 37 36 37 C36.35191406 36.37657715 36.70382813 35.7531543 37.06640625 35.11083984 C43.68314711 23.39117513 50.30856947 11.6772023 57 0 C61.62 0 66.24 0 71 0 C71 21.12 71 42.24 71 64 C66.38 64 61.76 64 57 64 C56.67 51.79 56.34 39.58 56 27 C51.15215685 35.749831 51.15215685 35.749831 46.30712891 44.5012207 C45.70304199 45.59007568 45.09895508 46.67893066 44.4765625 47.80078125 C43.549646 49.47394409 43.549646 49.47394409 42.60400391 51.1809082 C41.47568464 53.16396796 40.26559568 55.10160648 39 57 C37.0546875 57.29296875 37.0546875 57.29296875 34.875 57.1875 C33.59625 57.125625 32.3175 57.06375 31 57 C28.87574801 53.37410189 26.75803806 49.74448725 24.64624023 46.11132812 C23.9273133 44.87656828 23.20662637 43.64283141 22.48413086 42.41015625 C21.4443781 40.63549222 20.41106452 38.85721414 19.37890625 37.078125 C18.7557251 36.00981445 18.13254395 34.94150391 17.49047852 33.84082031 C16.25138049 31.47912585 15.46378431 29.60158301 15 27 C14.34 27 13.68 27 13 27 C13 38.88 13 50.76 13 63 C8.71 63 4.42 63 0 63 C0 42.21 0 21.42 0 0 Z " fill="#164B33" transform="translate(215,681)"/>
<path d="M0 0 C4.62 0 9.24 0 14 0 C14.33 0.99 14.66 1.98 15 3 C15.66386719 2.5153125 16.32773437 2.030625 17.01171875 1.53125 C20.65891311 -0.33763913 23.80222138 -0.53655507 27.8125 -0.5 C28.52446533 -0.49500488 29.23643066 -0.49000977 29.9699707 -0.48486328 C37.86832718 -0.22251952 41.44078907 2.44078907 46.8125 7.8125 C51.81771502 15.10581331 53.21657228 22.16563871 52 31 C49.52923257 38.33096014 45.6854525 43.72599739 39.0625 47.8125 C33.43958896 49.96280005 26.87497457 49.83272519 21 49 C18.69 47.68 16.38 46.36 14 45 C14 51.93 14 58.86 14 66 C9.38 66 4.76 66 0 66 C0 44.22 0 22.44 0 0 Z " fill="#164A32" transform="translate(490,696)"/>
<path d="M0 0 C0 22.44 0 44.88 0 68 C-20.46 68 -40.92 68 -62 68 C-62 60.13485114 -62 60.13485114 -58.1875 55.875 C-57.3625 54.93140625 -56.5375 53.9878125 -55.6875 53.015625 C-55.24664062 52.52384766 -54.80578125 52.03207031 -54.3515625 51.52539062 C-52.99466999 49.99398448 -51.68041424 48.43480795 -50.375 46.859375 C-37.59889285 31.44655658 -23.96296567 17.14782064 -8.25 4.6875 C-7.6533252 4.21296387 -7.05665039 3.73842773 -6.44189453 3.24951172 C-2.25279437 0 -2.25279437 0 0 0 Z " fill="#144B34" transform="translate(403,554)"/>
<path d="M0 0 C15.84 0 31.68 0 48 0 C48 3.96 48 7.92 48 12 C36.78 12 25.56 12 14 12 C14 16.62 14 21.24 14 26 C23.57 26 33.14 26 43 26 C43 29.63 43 33.26 43 37 C33.43 37 23.86 37 14 37 C14 41.95 14 46.9 14 52 C25.55 52 37.1 52 49 52 C49 55.96 49 59.92 49 64 C32.83 64 16.66 64 0 64 C0 42.88 0 21.76 0 0 Z " fill="#184B34" transform="translate(380,681)"/>
<path d="M0 0 C2.06648112 1.19680374 3.59585806 2.41476429 5.2734375 4.109375 C5.84320312 4.66367187 6.41296875 5.21796875 7 5.7890625 C13.7017635 12.93549277 13.2734375 17.90161855 13.2734375 28.109375 C1.7234375 28.109375 -9.8265625 28.109375 -21.7265625 28.109375 C-19.22972136 32.89288475 -19.22972136 32.89288475 -15.1015625 35.734375 C-9.88913211 36.55739032 -5.69856238 37.10837018 -1.2265625 34.109375 C-0.4015625 33.449375 0.4234375 32.789375 1.2734375 32.109375 C5.82359643 33.62609464 7.77401014 37.27828553 10.2734375 41.109375 C2.42320465 48.21196663 -5.01900787 48.81289977 -15.28125 48.55859375 C-22.52394125 48.07523941 -27.16305294 44.67288456 -32.1640625 39.671875 C-37.24760334 31.33486802 -37.86431986 23.63211725 -36.7265625 14.109375 C-34.50041221 7.78885416 -29.72747654 3.31560939 -23.90625 0.1484375 C-16.46887202 -2.28195874 -7.4667162 -2.43898466 0 0 Z " fill="#174D35" transform="translate(749.7265625,696.890625)"/>
<path d="M0 0 C6.13989437 2.78868497 9.90039968 7.89324486 13.19140625 13.59765625 C14.31640625 17.34765625 14.31640625 17.34765625 14.31640625 28.34765625 C2.43640625 28.34765625 -9.44359375 28.34765625 -21.68359375 28.34765625 C-18.46758307 33.93932585 -18.46758307 33.93932585 -13.68359375 36.34765625 C-8.84442856 37.03440246 -4.30733182 37.21192752 -0.18359375 34.34765625 C0.64140625 33.68765625 1.46640625 33.02765625 2.31640625 32.34765625 C2.97640625 32.34765625 3.63640625 32.34765625 4.31640625 32.34765625 C6.04296875 34.09765625 6.04296875 34.09765625 7.94140625 36.34765625 C8.57304688 37.09015625 9.2046875 37.83265625 9.85546875 38.59765625 C10.57863281 39.46390625 10.57863281 39.46390625 11.31640625 40.34765625 C6.70826209 45.51436334 2.88877041 48.07547612 -3.96484375 48.59765625 C-13.24184173 48.75623741 -21.2544109 48.4848073 -28.68359375 42.34765625 C-34.75777202 35.54690163 -37.26674962 29.39513047 -37.0546875 20.2265625 C-36.16779359 13.34613294 -33.09070766 8.06999372 -27.62109375 3.84765625 C-26.33617912 2.97238767 -25.02350828 2.13615466 -23.68359375 1.34765625 C-23.11253906 0.97382812 -22.54148437 0.6 -21.953125 0.21484375 C-15.70011755 -2.17442932 -6.48026538 -1.57526102 0 0 Z " fill="#184C34" transform="translate(583.68359375,696.65234375)"/>
<path d="M0 0 C4.95 0 9.9 0 15 0 C16.71393919 4.07315609 18.42455123 8.1473944 20.12695312 12.2253418 C20.70707279 13.61221066 21.28909253 14.99828632 21.87304688 16.38354492 C22.71204306 18.374734 23.54416662 20.36867484 24.375 22.36328125 C25.12910156 24.16212769 25.12910156 24.16212769 25.8984375 25.99731445 C27 29 27 29 27 32 C27.66 32 28.32 32 29 32 C29.11859375 31.29641357 29.2371875 30.59282715 29.359375 29.86791992 C30.04860138 26.78242363 31.06612574 24.04416616 32.25 21.11328125 C32.6934375 20.01048828 33.136875 18.90769531 33.59375 17.77148438 C34.0578125 16.63001953 34.521875 15.48855469 35 14.3125 C35.4640625 13.15943359 35.928125 12.00636719 36.40625 10.81835938 C39.81667933 2.36664134 39.81667933 2.36664134 41 0 C45.62 0 50.24 0 55 0 C53.00292628 6.20826919 50.75846973 12.21085909 48.19921875 18.20703125 C47.84036087 19.05367844 47.48150299 19.90032562 47.11177063 20.77262878 C46.35626936 22.55235938 45.59901745 24.33134776 44.84008789 26.10961914 C43.69589596 28.79281101 42.55950351 31.47920986 41.42382812 34.16601562 C29.96134582 61.18765257 29.96134582 61.18765257 22.08203125 66.2265625 C16.84085088 68.17356759 9.80496674 68.04730901 4.59375 66.1015625 C2.6875 65 2.6875 65 0 63 C1.1094072 59.51329166 2.26337666 56.22515763 4 53 C4.56589844 53.15984375 5.13179688 53.3196875 5.71484375 53.484375 C8.05284773 54.01192462 10.16832549 54.20138732 12.5625 54.25 C13.70912109 54.28867187 13.70912109 54.28867187 14.87890625 54.328125 C17.06268692 54.13976758 17.06268692 54.13976758 18.83984375 52.796875 C20.23563068 51.05067873 20.23563068 51.05067873 19.7590332 48.84521484 C18.81738052 45.31545597 17.45913588 42.02572107 16.015625 38.6796875 C15.71815369 37.98038116 15.42068237 37.28107483 15.11419678 36.56057739 C14.48427312 35.08208143 13.85208245 33.60454955 13.21777344 32.12792969 C12.26287471 29.90497169 11.31438103 27.67937548 10.3671875 25.453125 C7.29619771 18.25344063 4.17760626 11.08928863 0.83886719 4.00830078 C0 2 0 2 0 0 Z " fill="#174A33" transform="translate(293,696)"/>
<path d="M0 0 C4.29 0 8.58 0 13 0 C13 1.65 13 3.3 13 5 C13.99 4.175 14.98 3.35 16 2.5 C22.37504286 -1.48440179 29.8088577 -0.93122706 37 0 C42.7580514 2.11045462 46.34032841 5.68103977 49.05810547 11.1159668 C50.26764095 14.819503 50.24902687 18.29504493 50.1953125 22.14453125 C50.1924826 22.91431808 50.18965271 23.68410492 50.18673706 24.47721863 C50.17559157 26.92247425 50.15049781 29.36735612 50.125 31.8125 C50.1149629 33.47590615 50.10583833 35.13931807 50.09765625 36.80273438 C50.07737688 40.86874748 50.03821867 44.93395811 50 49 C45.05 49 40.1 49 35 49 C34.98582031 46.82019531 34.97164062 44.64039063 34.95703125 42.39453125 C34.92637721 40.27287535 34.88729792 38.15152937 34.84741211 36.0300293 C34.82428007 34.56074053 34.8098476 33.09128708 34.80444336 31.62182617 C34.79511721 29.50335655 34.75405873 27.38745935 34.70703125 25.26953125 C34.6913208 23.99698486 34.67561035 22.72443848 34.65942383 21.41333008 C33.83912593 17.16727864 32.32100702 15.6788892 29 13 C26.23309 12.15630206 23.81251332 12.36931519 21 13 C18.1899654 14.79363911 16.49059532 16.01880935 15 19 C14.84504237 21.24974161 14.74989072 23.50371536 14.68359375 25.7578125 C14.66281265 26.42086395 14.64203156 27.08391541 14.62062073 27.76705933 C14.55520769 29.88626694 14.49627895 32.005599 14.4375 34.125 C14.39430691 35.56121081 14.35069236 36.99740902 14.30664062 38.43359375 C14.19874091 41.95560344 14.09960757 45.47770688 14 49 C9.38 49 4.76 49 0 49 C0 32.83 0 16.66 0 0 Z " fill="#174C33" transform="translate(607,696)"/>
<path d="M0 0 C10.14966691 -1.44422138 10.14966691 -1.44422138 15 0 C18.97928001 3.53888539 21.37509948 7.35645771 24 12 C24.33 12.33 24.66 12.66 25 13 C25.47566406 12.0615625 25.95132812 11.123125 26.44140625 10.15625 C31.72140904 0.73901831 31.72140904 0.73901831 35.8984375 -0.61572266 C40.31591068 -1.15203944 44.61018174 -0.67669135 49 0 C44.79421646 6.79496902 40.40150845 13.24811443 35.40625 19.4921875 C33.75906823 21.8712098 33.75906823 21.8712098 34.22827148 24.38452148 C35.06931335 27.23491107 36.15725927 28.98984176 37.94140625 31.35546875 C38.52470703 32.14244141 39.10800781 32.92941406 39.70898438 33.74023438 C40.32064453 34.54783203 40.93230469 35.35542969 41.5625 36.1875 C42.77626846 37.80289237 43.98611984 39.42123787 45.19140625 41.04296875 C45.72967041 41.75477295 46.26793457 42.46657715 46.82250977 43.19995117 C48 45 48 45 48 47 C48.66 47 49.32 47 50 47 C50 47.66 50 48.32 50 49 C39.06702163 50.56951959 39.06702163 50.56951959 34 49 C30.59001383 46.2958137 28.64307185 42.61782545 26.6015625 38.84375 C26.07304687 37.9053125 25.54453125 36.966875 25 36 C24.34 36 23.68 36 23 36 C22.13505365 37.53580717 21.27392628 39.07393006 20.43530273 40.62426758 C16.06171436 48.36138005 16.06171436 48.36138005 12.01220703 49.61572266 C7.29063858 50.15572609 2.6854387 49.67263353 -2 49 C1.02434719 44.00281705 4.06024732 39.07905499 7.76171875 34.55078125 C8.22529785 33.97996826 8.68887695 33.40915527 9.16650391 32.82104492 C10.08690214 31.70282063 11.02261604 30.59700451 11.97412109 29.50512695 C13.44439246 27.79339981 13.44439246 27.79339981 15 25 C14.25388208 20.24638274 10.37935392 16.25729646 7.5 12.5 C1.51546392 4.69072165 1.51546392 4.69072165 0 0 Z " fill="#184C35" transform="translate(434,696)"/>
<path d="M0 0 C1 3 1 3 0.22265625 5.04296875 C-0.35162109 6.10451172 -0.35162109 6.10451172 -0.9375 7.1875 C-1.50791016 8.26064453 -1.50791016 8.26064453 -2.08984375 9.35546875 C-2.39019531 9.89816406 -2.69054687 10.44085937 -3 11 C-3.53367187 10.855625 -4.06734375 10.71125 -4.6171875 10.5625 C-10.36958997 9.12937551 -16.07166645 8.27233451 -22 9 C-22.99 9.66 -23.98 10.32 -25 11 C-24.67 12.32 -24.34 13.64 -24 15 C-23.2265625 15.19335938 -22.453125 15.38671875 -21.65625 15.5859375 C-19.49631927 16.12592018 -17.33751142 16.67040886 -15.1796875 17.21875 C-13.33910482 17.67098162 -11.49203651 18.10058683 -9.6328125 18.46875 C-4.40666905 19.5261798 -1.73189896 21.35912296 2 25 C3.60089019 28.20178039 3.3573266 31.51768987 3 35 C1.28348124 39.69784081 -0.81649996 42.27586044 -5 45 C-10.01068748 47.08654001 -14.47279594 47.3487146 -19.8125 47.3125 C-21.00746094 47.30947876 -21.00746094 47.30947876 -22.2265625 47.30639648 C-28.855369 47.19315889 -34.01674748 45.99162626 -40 43 C-39.39009109 39.44219804 -38.4216319 36.3171411 -37 33 C-34.04056424 33.55489421 -31.21094781 34.22735402 -28.3125 35.0625 C-22.64044761 36.50747152 -16.58179143 36.86059714 -11 35 C-11.3445139 32.47632777 -11.3445139 32.47632777 -13 30 C-15.81927768 28.83889036 -18.74977731 28.41933956 -21.75 27.9375 C-27.70105629 26.93445906 -32.22295391 25.993083 -37 22 C-39.94632743 17.780044 -39.49090408 12.94123127 -39 8 C-37.1584829 2.82073316 -32.7485614 0.36972354 -28 -2 C-19.50762684 -4.83079105 -8.05478211 -3.73532835 0 0 Z " fill="#174C34" transform="translate(808,698)"/>
<path d="M0 0 C1.30227539 -0.00483398 1.30227539 -0.00483398 2.63085938 -0.00976562 C7.79267593 0.03315197 12.21521708 0.48589405 17.0625 2.3125 C17.5575 3.3025 17.5575 3.3025 18.0625 4.3125 C17.28515625 6.4765625 17.28515625 6.4765625 16.125 8.9375 C15.74472656 9.75476563 15.36445312 10.57203125 14.97265625 11.4140625 C14.67230469 12.04054688 14.37195313 12.66703125 14.0625 13.3125 C13.36125 13.168125 12.66 13.02375 11.9375 12.875 C1.65065081 10.45933934 1.65065081 10.45933934 -7.9375 13.3125 C-7.6075 14.6325 -7.2775 15.9525 -6.9375 17.3125 C-6.1640625 17.50585938 -5.390625 17.69921875 -4.59375 17.8984375 C-2.43535276 18.43803681 -0.27783723 18.98117196 1.87890625 19.52734375 C3.73423017 19.98491443 5.59462799 20.42411709 7.46484375 20.81640625 C13.41310656 22.08369449 16.70204064 24.27181095 20.0625 29.3125 C20.88882986 34.36615946 20.68922731 38.22078145 18.125 42.6875 C12.84438332 47.93768882 5.86165981 49.81442084 -1.3984375 49.859375 C-2.23632812 49.84390625 -3.07421875 49.8284375 -3.9375 49.8125 C-5.19433594 49.83570313 -5.19433594 49.83570313 -6.4765625 49.859375 C-12.7413099 49.82058399 -17.42472912 48.23533384 -22.9375 45.3125 C-22.32759109 41.75469804 -21.3591319 38.6296411 -19.9375 35.3125 C-18.803125 35.6425 -17.66875 35.9725 -16.5 36.3125 C-9.11519025 37.9984212 -1.4627141 37.46801533 6.0625 37.3125 C5.7179861 34.78882777 5.7179861 34.78882777 4.0625 32.3125 C1.24322232 31.15139036 -1.68727731 30.73183956 -4.6875 30.25 C-10.63855629 29.24695906 -15.16045391 28.305583 -19.9375 24.3125 C-22.84013366 20.10199361 -22.7988689 15.2238139 -21.9375 10.3125 C-17.15479063 1.43974951 -9.35374801 -0.17283348 0 0 Z " fill="#174C33" transform="translate(687.9375,695.6875)"/>
<path d="M0 0 C0.66 0 1.32 0 2 0 C2.51046875 1.17755859 2.51046875 1.17755859 3.03125 2.37890625 C8.05320028 13.26425062 13.78827324 18.82155554 25 23 C25 23.66 25 24.32 25 25 C24.21496094 25.3403125 23.42992187 25.680625 22.62109375 26.03125 C11.73574938 31.05320028 6.17844446 36.78827324 2 48 C1.34 48 0.68 48 0 48 C-0.3403125 47.21496094 -0.680625 46.42992187 -1.03125 45.62109375 C-6.05320028 34.73574938 -11.78827324 29.17844446 -23 25 C-23 24.34 -23 23.68 -23 23 C-22.21496094 22.6596875 -21.42992187 22.319375 -20.62109375 21.96875 C-9.73574938 16.94679972 -4.17844446 11.21172676 0 0 Z " fill="#CFDFD0" transform="translate(967,944)"/>
<path d="M0 0 C4.05126432 2.10065557 6.32990997 3.76758006 8 8 C8.57078357 12.5588558 8.55798544 16.68873423 6.75 20.9375 C4.33110905 23.78833576 2.34298833 25.7379535 -1.40234375 26.46875 C-8.30416683 26.5538264 -8.30416683 26.5538264 -12.0625 23.5625 C-12.701875 22.716875 -13.34125 21.87125 -14 21 C-14.33 20.67 -14.66 20.34 -15 20 C-16.07891454 9.22626768 -16.07891454 9.22626768 -13.953125 4.83984375 C-9.94572271 0.04274748 -6.04981916 -0.82088624 0 0 Z " fill="#CFE0CD" transform="translate(519,707)"/>
<path d="M0 0 C0 0.33 0 0.66 0 1 C-0.73312408 1.01030746 -1.46624817 1.02061493 -2.22158813 1.03123474 C-9.19274406 1.12995981 -16.16383013 1.23256755 -23.13486671 1.33933926 C-26.71716337 1.39407575 -30.29946851 1.44740611 -33.88183594 1.49731445 C-37.35082134 1.54569843 -40.81972789 1.59804805 -44.28861618 1.65294075 C-46.23018324 1.68269154 -48.17180909 1.70852587 -50.11343384 1.73423767 C-57.38278624 1.85306068 -64.59339796 2.1949852 -71.84013367 2.78627014 C-76.9569962 3.13236905 -82.06213853 3.06838374 -87.1875 3 C-89.18093567 2.97452478 -91.17443436 2.95348024 -93.16796875 2.9375 C-94.45610474 2.92009766 -94.45610474 2.92009766 -95.77026367 2.90234375 C-98.17365127 2.90543097 -98.17365127 2.90543097 -101 4 C-101 3.34 -101 2.68 -101 2 C-101.8677002 2.16371094 -102.73540039 2.32742188 -103.62939453 2.49609375 C-106.80662197 2.97108994 -109.72263901 3.09978524 -112.9296875 3.0625 C-114.04617676 3.05412109 -115.16266602 3.04574219 -116.31298828 3.03710938 C-118.07618408 3.01874023 -118.07618408 3.01874023 -119.875 3 C-127.31712831 2.9566803 -134.70264237 2.93147899 -142.125 3.5 C-149.21107466 4.03682384 -156.26944435 4.11298553 -163.375 4.125 C-164.48891113 4.12951172 -165.60282227 4.13402344 -166.75048828 4.13867188 C-167.78931152 4.13673828 -168.82813477 4.13480469 -169.8984375 4.1328125 C-170.83349121 4.13168457 -171.76854492 4.13055664 -172.73193359 4.12939453 C-175 4 -175 4 -177 3 C-179.10748 3.11757211 -181.2117833 3.29436811 -183.3125 3.5 C-189.34669253 3.9899293 -195.04595494 3.86016525 -201.0625 3.25390625 C-206.52464799 2.73621481 -206.52464799 2.73621481 -211.8989563 3.5322113 C-214.29285539 4.06520304 -216.06473052 3.9014518 -218.49169922 3.58227539 C-224.3747733 2.91186545 -230.21598274 2.77653514 -236.1328125 2.68359375 C-237.25066132 2.66281265 -238.36851013 2.64203156 -239.52023315 2.62062073 C-243.05509913 2.55577315 -246.59003282 2.49654465 -250.125 2.4375 C-252.53646505 2.39425301 -254.94792351 2.35063686 -257.359375 2.30664062 C-263.23951389 2.20015918 -269.11971859 2.09827835 -275 2 C-275 1.67 -275 1.34 -275 1 C-249.77559041 0.86732523 -224.55117005 0.73688131 -199.32673645 0.60884857 C-187.60535148 0.54930591 -175.88397059 0.4891163 -164.16259766 0.42724609 C-109.44133455 0.13877759 -54.72210382 -0.09114151 0 0 Z " fill="#BFD3C0" transform="translate(666,907)"/>
<path d="M0 0 C0.33 0 0.66 0 1 0 C1 74.58 1 149.16 1 226 C0.67 226 0.34 226 0 226 C0 153.4 0 80.8 0 6 C-0.66 6 -1.32 6 -2 6 C-1.34 4.02 -0.68 2.04 0 0 Z " fill="#6EB174" transform="translate(681,396)"/>
<path d="M0 0 C0 0.66 0 1.32 0 2 C2.97 2.495 2.97 2.495 6 3 C6.33 2.34 6.66 1.68 7 1 C7.99 1.33 8.98 1.66 10 2 C12.50703075 2.09691658 14.98528694 2.13996663 17.4921875 2.1328125 C18.23397247 2.13376923 18.97575745 2.13472595 19.74002075 2.13571167 C21.31528813 2.13639245 22.89055832 2.13454525 24.46582031 2.13037109 C26.8314479 2.1250971 29.19687893 2.13027966 31.5625 2.13671875 C39.5288769 2.13902596 47.37117973 1.94864613 55.30517578 1.11669922 C58.07935153 0.99656369 60.30697885 1.3649524 63 2 C65.33177975 2.34403308 67.66487041 2.67949202 70 3 C70 3.33 70 3.66 70 4 C23.8 4 -22.4 4 -70 4 C-70 3.67 -70 3.34 -70 3 C-59.10422318 2.28552283 -48.2455018 1.95777267 -37.328125 2.00390625 C-35.92250809 2.00920853 -35.92250809 2.00920853 -34.48849487 2.01461792 C-29.71683105 2.03583481 -24.94573237 2.07224643 -20.17431641 2.125 C-18.38444169 2.13695843 -16.59456542 2.14868693 -14.8046875 2.16015625 C-13.56214203 2.18040611 -13.56214203 2.18040611 -12.29449463 2.20106506 C-7.74879509 2.22076773 -4.0841881 0 0 0 Z " fill="#C7D9C7" transform="translate(476,113)"/>
<path d="M0 0 C3.0625 1.6875 3.0625 1.6875 5 4 C5.33 5.65 5.66 7.3 6 9 C-1.26 9 -8.52 9 -16 9 C-15 4 -15 4 -13.0625 1.6875 C-8.69536109 -0.71888267 -4.88235152 -0.79368276 0 0 Z " fill="#CDE0CB" transform="translate(578,707)"/>
<path d="M0 0 C3.43407355 0.60899827 5.15034233 1.76197613 7.37890625 4.421875 C7.70890625 6.071875 8.03890625 7.721875 8.37890625 9.421875 C1.11890625 9.421875 -6.14109375 9.421875 -13.62109375 9.421875 C-11.67507844 1.63781375 -7.59655159 -0.40756462 0 0 Z " fill="#C8DACA" transform="translate(740.62109375,706.578125)"/>
<path d="M0 0 C3.70038173 7.40076346 3.10114606 15.49011147 2.96337891 23.59082031 C2.83523 27.42061711 2.83523 27.42061711 4 31 C3.77337012 33.40285782 3.46929455 35.79866177 3.125 38.1875 C2.94195313 39.48042969 2.75890625 40.77335938 2.5703125 42.10546875 C2.38210938 43.39066406 2.19390625 44.67585937 2 46 C1.80932432 47.32934523 1.61918751 48.65876791 1.4296875 49.98828125 C1.28789063 50.98214844 1.14609375 51.97601562 1 53 C0.67 53 0.34 53 0 53 C0 35.51 0 18.02 0 0 Z " fill="#C1D5C2" transform="translate(908,495)"/>
<path d="M0 0 C8.17962388 -0.04628728 16.35919327 -0.08185072 24.53891563 -0.10362434 C28.33686312 -0.11407321 32.13472118 -0.12825236 35.93261719 -0.15087891 C39.59601346 -0.17256821 43.25932357 -0.18456031 46.92277908 -0.18975449 C48.32226544 -0.19345731 49.72174695 -0.20068777 51.12119675 -0.21146011 C53.07733331 -0.22592225 55.03355609 -0.22681647 56.98974609 -0.22705078 C58.66186661 -0.23371262 58.66186661 -0.23371262 60.36776733 -0.24050903 C63 0 63 0 65 2 C61.9511302 2.93297461 59.65831522 2.99654125 56.50830078 2.58227539 C50.6252267 1.91186545 44.78401726 1.77653514 38.8671875 1.68359375 C37.74933868 1.66281265 36.63148987 1.64203156 35.47976685 1.62062073 C31.94490087 1.55577315 28.40996718 1.49654465 24.875 1.4375 C22.46353495 1.39425301 20.05207649 1.35063686 17.640625 1.30664062 C11.76048611 1.20015918 5.88028141 1.09827835 0 1 C0 0.67 0 0.34 0 0 Z " fill="#B7CCB7" transform="translate(391,908)"/>
<path d="M0 0 C9.24 0 18.48 0 28 0 C28 0.33 28 0.66 28 1 C27.25838623 1.01458252 26.51677246 1.02916504 25.75268555 1.04418945 C22.39709369 1.11859457 19.04250506 1.21528006 15.6875 1.3125 C14.52025391 1.33505859 13.35300781 1.35761719 12.15039062 1.38085938 C11.03212891 1.41630859 9.91386719 1.45175781 8.76171875 1.48828125 C7.2142395 1.52755737 7.2142395 1.52755737 5.63549805 1.56762695 C2.70308967 2.04871035 1.79264077 2.69133671 0 5 C0 3.35 0 1.7 0 0 Z " fill="#D9E7D6" transform="translate(395,719)"/>
<path d="M0 0 C2.475 0.99 2.475 0.99 5 2 C4.51917969 2.32613281 4.03835938 2.65226563 3.54296875 2.98828125 C1.17627334 6.07397274 1.42700473 9.44155967 1.3125 13.1875 C1.27833984 13.93708984 1.24417969 14.68667969 1.20898438 15.45898438 C1.12665706 17.30546838 1.06164719 19.15270994 1 21 C0.67 21 0.34 21 0 21 C0 14.07 0 7.14 0 0 Z " fill="#C4DAC6" transform="translate(504,741)"/>
<path d="M0 0 C0.66 0.33 1.32 0.66 2 1 C1.47462276 6.0302076 0.89405214 11.01885239 0 16 C-0.33 16 -0.66 16 -1 16 C-1.02685095 13.52076199 -1.04676547 11.0418116 -1.0625 8.5625 C-1.07506836 7.50192383 -1.07506836 7.50192383 -1.08789062 6.41992188 C-1.09653588 4.61306441 -1.05220011 2.80612397 -1 1 C-0.67 0.67 -0.34 0.34 0 0 Z " fill="#BED1BE" transform="translate(909,558)"/>
<path d="M0 0 C1.125 1.6875 1.125 1.6875 2 4 C1.04504351 7.55938327 -0.3740379 9.5042509 -3 12 C-2.69106068 10.3743193 -2.3777305 8.74947252 -2.0625 7.125 C-1.88847656 6.22007812 -1.71445312 5.31515625 -1.53515625 4.3828125 C-1 2 -1 2 0 0 Z " fill="#356552" transform="translate(319,602)"/>
<path d="M0 0 C0.33 0.99 0.66 1.98 1 3 C-0.21484375 5.04296875 -0.21484375 5.04296875 -1.9375 7.1875 C-2.50339844 7.90292969 -3.06929688 8.61835937 -3.65234375 9.35546875 C-4.09707031 9.89816406 -4.54179687 10.44085937 -5 11 C-5.66 10.01 -6.32 9.02 -7 8 C-6.01 7.67 -5.02 7.34 -4 7 C-3.28272222 5.35448038 -2.61674772 3.68577711 -2 2 C-1.34 1.34 -0.68 0.68 0 0 Z " fill="#CCDBCA" transform="translate(464,699)"/>
<path d="M0 0 C6.75 0.75 6.75 0.75 9 3 C7.1128125 2.9071875 7.1128125 2.9071875 5.1875 2.8125 C1.83041021 2.76367078 1.83041021 2.76367078 -1 4.5 C-1.33 4.995 -1.66 5.49 -2 6 C-1.34 4.02 -0.68 2.04 0 0 Z " fill="#A0CF9D" transform="translate(675,357)"/>
<path d="M0 0 C0.33 0 0.66 0 1 0 C1 4.29 1 8.58 1 13 C0.67 13 0.34 13 0 13 C0 10.69 0 8.38 0 6 C-0.66 6 -1.32 6 -2 6 C-1.34 4.02 -0.68 2.04 0 0 Z " fill="#6FBA6A" transform="translate(681,396)"/>
<path d="M0 0 C0.66 0.66 1.32 1.32 2 2 C1.01 3.485 1.01 3.485 0 5 C-0.99 4.67 -1.98 4.34 -3 4 C-3.33 3.01 -3.66 2.02 -4 1 C-2.125 0.375 -2.125 0.375 0 0 Z " fill="#BED3BF" transform="translate(251,714)"/>
</svg>
